Simulation
nRows=44
nColumns=15
endheader
time  TH_x TH_y TH_z SC_y  SC_z  SC_x  AC_y  AC_z  AC_x  GH_y  GH_z  GH_yy  EL_x  PS_y
8.6175  0.000000  0.000000  0.000000  -44.37774998676113  -2.514125080041221  -3.2273029479704385  53.15786576638268  -5.160620662812227  7.672565864262178  5.007688345842749  38.78827106159239  -9.218590120380233  26.162023271531684  120.000000
8.67495  0.000000  0.000000  0.000000  -44.38605897150054  -2.3768372492796015  -3.6155090511570016  53.4459135885733  -5.166865206686101  8.285661847519473  3.131693015213586  39.09888862104228  -7.897623497096548  26.194846833193914  120.000000
8.7324  0.000000  0.000000  0.000000  -43.807263582716566  -2.6608982686105844  -3.524612768200824  53.75056745115128  -5.964834005442285  8.658245152646407  -0.19480035426234116  40.43143962547325  -5.512103669574636  26.43144579589817  120.000000
8.78985  0.000000  0.000000  0.000000  -43.51463680533004  -3.0726245090943785  -3.704570769675108  54.043970028541715  -5.82210877297106  8.791512647477786  -2.199480794142799  41.0542868351449  -4.194620160691542  26.53453693376582  120.000000
8.8473  0.000000  0.000000  0.000000  -43.65544672991919  -3.064907206405895  -4.064726125335139  53.999760191060666  -5.4615636685617295  8.927752935648794  -2.1688420532429324  40.865452157620666  -4.2929665668541555  26.4953995447221  120.000000
8.90475  0.000000  0.000000  0.000000  -43.923642342093814  -2.782895102233646  -4.25422961451903  53.86088558538706  -5.199445827958676  8.96667755122426  -1.1308594796841593  40.24626263827431  -4.926423550093127  26.39973530527092  120.000000
8.9622  0.000000  0.000000  0.000000  -44.020909374893336  -2.57778167673292  -4.565222389244473  53.64265154262853  -4.5892860521701  8.986103519097437  0.23912664819901164  39.40816887268274  -5.5519209347633645  26.29147632241491  120.000000
9.01965  0.000000  0.000000  0.000000  -43.84678970527382  -2.6776776010276357  -5.055784241482246  53.453135181413764  -4.205811821145367  8.97472883476875  1.5030754248191025  39.348742595514736  -6.284132520148476  26.18528718548688  120.000000
9.0771  0.000000  0.000000  0.000000  -43.562095187805355  -3.111999423957609  -5.8268332127937335  53.4060453333657  -3.822993614749435  9.186343883577752  2.0857627441663142  39.99879775440072  -6.57524822099284  26.14030671633807  120.000000
9.13455  0.000000  0.000000  0.000000  -43.017527711249514  -3.6067496304572813  -6.518584961132237  53.751651327992825  -3.423686881275131  9.61729254560271  1.3640966008534663  40.7182754160535  -6.246051016318103  26.200851313548636  120.000000
9.192  0.000000  0.000000  0.000000  -42.602630328771944  -3.8811827502733807  -7.107863445362311  53.80553137539549  -3.361331189928631  10.019762514569143  1.3594516311721632  41.40895181190814  -6.708938279861691  26.340986570445637  120.000000
9.24945  0.000000  0.000000  0.000000  -42.812241172457625  -3.8021644706851037  -6.570264823189795  53.70336022572948  -3.9013319533433823  9.644340805364042  3.010990822885329  41.35563308325118  -8.544149925114391  26.433891956472767  120.000000
9.3069  0.000000  0.000000  0.000000  -43.20803610089719  -3.4259132419157923  -4.509776692251872  53.3697048286892  -4.71527703417794  8.307816846815228  5.831934557263697  39.83103636735566  -11.073993915184307  26.42375502687688  120.000000
9.36435  0.000000  0.000000  0.000000  -43.15348337029655  -3.40749679140237  -3.9248527589852733  52.527768120867435  -4.933109035222523  7.1201476705365385  9.517414284296098  39.15681458705636  -14.222588448423858  26.498039447039638  120.000000
9.421800000000001  0.000000  0.000000  0.000000  -42.806078867549495  -3.856479849533132  -5.258393436465347  52.07062333518103  -4.020278953385722  7.211192020975325  11.592107886335837  39.36894784269773  -15.629016990119725  26.51642272143695  120.000000
9.47925  0.000000  0.000000  0.000000  -42.12534971201063  -4.464362885753949  -6.694645640666296  52.27720016894806  -3.089573634628791  7.912859934287855  11.474224273614379  39.8637588635824  -15.08422910877319  26.423476216195954  120.000000
9.5367  0.000000  0.000000  0.000000  -41.32359641892858  -5.156918647096856  -8.066494827558161  52.191104332934216  -2.658191438638112  8.45322091545509  11.605303776548935  41.1687988606601  -14.590232729230435  26.458748144397557  120.000000
9.59415  0.000000  0.000000  0.000000  -41.12410903070711  -5.458978217841067  -8.266934850096112  52.53041067228735  -2.65745277985658  8.753131333961765  12.026138129802012  41.820917074444274  -14.707755673288995  26.3609869935598  120.000000
9.6516  0.000000  0.000000  0.000000  -41.42915921721576  -5.058364625376622  -7.409104000326391  52.96939605601623  -3.4023761662939203  8.987976190538468  13.049360721499252  42.005044709201805  -15.891820941633842  26.210267862094618  120.000000
9.70905  0.000000  0.000000  0.000000  -42.164920379211864  -4.393128578969726  -6.284563526530876  53.1969608055867  -3.9714887069568916  8.861165580699254  15.395836954106327  41.81572925864628  -18.93201928789566  26.235626448342117  120.000000
9.7665  0.000000  0.000000  0.000000  -43.22651320988065  -3.5090901142538016  -4.678721565804566  53.43990104523231  -4.278627870211131  8.478689227782382  18.36067340326063  41.000500234577  -22.962184953480687  26.296410335906337  120.000000
9.82395  0.000000  0.000000  0.000000  -44.12493899753472  -2.5590817339214555  -3.5398863416182693  53.32531290318085  -4.660012556245373  8.16862294939907  21.41544893225042  40.69772284135723  -27.162516808120785  26.481734091356625  120.000000
9.8814  0.000000  0.000000  0.000000  -44.902728327683086  -1.974039751152956  -2.9169864636563547  53.279326014502715  -4.408246715508423  7.949072550047833  23.8227323300561  40.3924805319458  -30.524355821787918  26.623384973878604  120.000000
9.93885  0.000000  0.000000  0.000000  -45.17177865017383  -1.7065891566026383  -2.809340830565003  53.28338870871805  -4.246237200435616  7.98076064502278  24.619881672217662  40.44518758204142  -31.919657149305934  26.72535466766872  120.000000
9.9963  0.000000  0.000000  0.000000  -44.98188569173148  -1.8448719279066643  -3.221282360053565  53.24575181957028  -4.112086076977533  8.161715686226058  24.14747028191021  40.74870583657342  -31.396271460994818  26.74860254614584  120.000000
10.05375  0.000000  0.000000  0.000000  -44.47446641982952  -2.359570121777182  -3.972270781392396  53.34859266422213  -3.846280941936715  8.420026521410142  22.534707846940545  41.0025243108112  -29.21011617149506  26.656599786155653  120.000000
10.1112  0.000000  0.000000  0.000000  -43.633767899118226  -3.02775600354007  -5.034299236783151  53.222537195264735  -3.7617420064651355  8.724683560344937  20.304826026793346  41.43560518041631  -25.83173511903099  26.542988690270246  120.000000
10.16865  0.000000  0.000000  0.000000  -42.780325550137  -3.8099586529258387  -6.008651465641973  53.11832140770651  -3.5052027858213894  8.832619324851505  17.930541146447716  41.586895273087684  -22.20668085445754  26.381486274216638  120.000000
10.2261  0.000000  0.000000  0.000000  -42.00543801168498  -4.51629775900071  -6.99528762759929  52.78282557708902  -3.3189552622188483  8.857273227159405  15.803889041323195  41.712975878740735  -18.896145957964848  26.286784072928274  120.000000
10.28355  0.000000  0.000000  0.000000  -41.450671092407624  -5.0083761734663295  -7.541966334045735  52.47433449265629  -3.230236813592137  8.67090563051367  14.042322392749414  41.53843542289355  -16.39333791085454  26.23091789237792  120.000000
10.341000000000001  0.000000  0.000000  0.000000  -41.153862855789264  -5.333051155983722  -7.676148652632945  52.158884385964285  -3.0938299843416837  8.294436417978886  12.706835052174565  40.986562220254974  -14.785000430739473  26.29904485890036  120.000000
10.39845  0.000000  0.000000  0.000000  -41.180531163444975  -5.351357453729083  -7.2901040582669685  52.03785215306128  -3.3906199154941907  7.916986030522448  11.555423535581264  40.52321557358803  -13.742572586559941  26.327656536620985  120.000000
10.4559  0.000000  0.000000  0.000000  -41.44164093989505  -5.057838282254413  -6.577411701090153  52.244894879074664  -3.9167104239915176  7.900111518364513  10.018304803483897  39.97420412413501  -12.64759742624762  26.325403729704846  120.000000
10.51335  0.000000  0.000000  0.000000  -41.772007350237374  -4.722674572014681  -6.381018005947389  52.714965074589415  -4.104818594988323  8.386747893062095  8.200853727038062  39.734371400381285  -11.43085733868058  26.321695165390448  120.000000
10.5708  0.000000  0.000000  0.000000  -41.981428675256154  -4.416129886738935  -6.445199790251304  53.2296309486085  -4.153076655497648  9.138258729644438  6.266009899953303  39.72441171521831  -10.109656205068054  26.282767982461298  120.000000
10.62825  0.000000  0.000000  0.000000  -41.96881189238014  -4.3155602683327805  -6.946082350818452  53.51712318494687  -3.869404556299344  9.741446370694527  4.947269315425141  39.94748103069879  -9.243140892515488  26.34131218245633  120.000000
10.6857  0.000000  0.000000  0.000000  -41.998270391089434  -4.443372752177021  -7.536442387754227  53.40709873065595  -3.4433585951756123  9.915323186508635  4.832590101884266  40.21477804882862  -9.168802713337579  26.491481633435622  120.000000
10.74315  0.000000  0.000000  0.000000  -42.1758976342147  -4.355208970188297  -7.567632836320445  53.51985451680543  -3.4205037230756137  10.038322969552068  4.634355002148179  40.33470337534373  -9.003176075529698  26.50773919360829  120.000000
10.8006  0.000000  0.000000  0.000000  -42.450774806247644  -3.959309293596269  -7.209083541221422  53.81736813383329  -3.541729501551788  10.345928092298449  4.048076436215939  40.083905233324494  -8.474796872915002  26.463501514147183  120.000000
10.85805  0.000000  0.000000  0.000000  -42.82475629420901  -3.6061043241462905  -6.950692149997715  54.02435802223698  -3.537771801323853  10.490744945171011  3.839431507609149  39.90940742819912  -8.26521814584347  26.46720372988033  120.000000
10.9155  0.000000  0.000000  0.000000  -43.18759397057136  -3.3716420458097494  -6.702539244022757  53.98893094718682  -3.483904296992301  10.402528791466564  3.865690026190752  39.82484143629464  -8.1676900652678  26.494680166778714  120.000000
10.97295  0.000000  0.000000  0.000000  -43.41632198979754  -3.1980818643428215  -6.400968411152453  53.81846118889963  -3.527941003989009  10.077856815209225  3.7983929165002785  39.97067561359103  -8.095068728864293  26.502730258211084  120.000000
11.0304  0.000000  0.000000  0.000000  -43.64668877872817  -3.063067403260832  -5.981988154195857  53.49495308521587  -3.6638655770055806  9.601778064792242  3.573050093887056  40.298265766682235  -7.906007854427902  26.554263764914403  120.000000
11.08785  0.000000  0.000000  0.000000  -43.9384413642374  -2.94423280611165  -5.219811388466126  53.20131230010467  -4.080087994300488  8.876230959361012  3.1179248245922175  40.927190309133266  -7.7102930827676  26.662075438264715  120.000000
